<mxfile host="app.diagrams.net" agent="Mozilla/5.0 (Windows NT 10.0; Win64; x64; rv:131.0) Gecko/20100101 Firefox/131.0" version="24.8.3">
  <diagram name="Page-1" id="AOVgvmvvyc7UU4PLM1Ro">
    <mxGraphModel dx="3771" dy="5281" grid="1" gridSize="10" guides="1" tooltips="1" connect="1" arrows="1" fold="1" page="1" pageScale="1" pageWidth="827" pageHeight="1169" math="0" shadow="0">
      <root>
        <mxCell id="0" />
        <mxCell id="1" parent="0" />
        <mxCell id="uuDwatuscmwlwmb8hPeX-1" value="Always Taken Branch Predictor" style="html=1;overflow=block;blockSpacing=1;whiteSpace=wrap;fontSize=16.7;spacing=9;rounded=1;absoluteArcSize=1;arcSize=9;strokeWidth=NaN;lucidId=i2bk1pYp1I_v;" vertex="1" parent="1">
          <mxGeometry x="1170" y="-2075" width="120" height="90" as="geometry" />
        </mxCell>
        <mxCell id="uuDwatuscmwlwmb8hPeX-2" value="Data" style="html=1;overflow=block;blockSpacing=1;whiteSpace=wrap;fontSize=16.7;fontColor=#3a414a;spacing=9;strokeColor=#282c33;strokeOpacity=100;fillOpacity=100;rounded=1;absoluteArcSize=1;arcSize=9;fillColor=#ffffff;strokeWidth=1.5;lucidId=82bkHtU~yvYa;" vertex="1" parent="1">
          <mxGeometry x="1020" y="-1955" width="120" height="90" as="geometry" />
        </mxCell>
        <mxCell id="uuDwatuscmwlwmb8hPeX-3" value="Functionality" style="html=1;overflow=block;blockSpacing=1;whiteSpace=wrap;fontSize=16.7;spacing=9;rounded=1;absoluteArcSize=1;arcSize=9;strokeWidth=NaN;lucidId=o3bk2jGgh~UA;" vertex="1" parent="1">
          <mxGeometry x="1320" y="-1955" width="120" height="90" as="geometry" />
        </mxCell>
        <mxCell id="uuDwatuscmwlwmb8hPeX-4" value="" style="html=1;jettySize=18;whiteSpace=wrap;fontSize=13;strokeColor=#3a414a;strokeOpacity=100;strokeWidth=0.8;rounded=1;arcSize=12;edgeStyle=orthogonalEdgeStyle;startArrow=none;endArrow=block;endFill=1;exitX=0.5;exitY=1.008;exitPerimeter=0;entryX=0.5;entryY=-0.008;entryPerimeter=0;lucidId=E3bkcDDy-kEL;" edge="1" parent="1" source="uuDwatuscmwlwmb8hPeX-1" target="uuDwatuscmwlwmb8hPeX-3">
          <mxGeometry width="100" height="100" relative="1" as="geometry">
            <Array as="points" />
          </mxGeometry>
        </mxCell>
        <mxCell id="uuDwatuscmwlwmb8hPeX-5" value="" style="html=1;jettySize=18;whiteSpace=wrap;fontSize=13;strokeColor=#3a414a;strokeOpacity=100;strokeWidth=0.8;rounded=1;arcSize=12;edgeStyle=orthogonalEdgeStyle;startArrow=none;endArrow=block;endFill=1;exitX=0.5;exitY=1.008;exitPerimeter=0;entryX=0.5;entryY=-0.008;entryPerimeter=0;lucidId=R3bkoSl7Dh5S;" edge="1" parent="1" source="uuDwatuscmwlwmb8hPeX-1" target="uuDwatuscmwlwmb8hPeX-2">
          <mxGeometry width="100" height="100" relative="1" as="geometry">
            <Array as="points" />
          </mxGeometry>
        </mxCell>
        <mxCell id="uuDwatuscmwlwmb8hPeX-6" value="Predict" style="html=1;overflow=block;blockSpacing=1;whiteSpace=wrap;fontSize=16.7;spacing=9;rounded=1;absoluteArcSize=1;arcSize=9;strokeWidth=NaN;lucidId=d4bkPks5g2ti;" vertex="1" parent="1">
          <mxGeometry x="1320" y="-1820" width="120" height="90" as="geometry" />
        </mxCell>
        <mxCell id="uuDwatuscmwlwmb8hPeX-7" value="" style="html=1;jettySize=18;whiteSpace=wrap;fontSize=13;strokeColor=#3a414a;strokeOpacity=100;strokeWidth=0.8;rounded=1;arcSize=12;edgeStyle=orthogonalEdgeStyle;startArrow=none;endArrow=block;endFill=1;exitX=0.496;exitY=1.008;exitPerimeter=0;entryX=0.496;entryY=-0.008;entryPerimeter=0;lucidId=v4bkwlfStT5P;" edge="1" parent="1" source="uuDwatuscmwlwmb8hPeX-3" target="uuDwatuscmwlwmb8hPeX-6">
          <mxGeometry width="100" height="100" relative="1" as="geometry">
            <Array as="points" />
          </mxGeometry>
        </mxCell>
        <mxCell id="uuDwatuscmwlwmb8hPeX-8" value="INPUTS:&#xa;int Program Counter" style="html=1;overflow=block;blockSpacing=1;whiteSpace=wrap;fontSize=16.7;spacing=9;rounded=1;absoluteArcSize=1;arcSize=9;strokeWidth=NaN;lucidId=.4bk7yBoR5yF;" vertex="1" parent="1">
          <mxGeometry x="1590" y="-2191" width="180" height="90" as="geometry" />
        </mxCell>
        <mxCell id="uuDwatuscmwlwmb8hPeX-9" value="" style="html=1;jettySize=18;whiteSpace=wrap;fontSize=13;strokeColor=#3a414a;strokeOpacity=100;strokeWidth=0.8;rounded=1;arcSize=12;edgeStyle=orthogonalEdgeStyle;startArrow=none;endArrow=block;endFill=1;exitX=1.004;exitY=0.5;exitPerimeter=0;entryX=-0.006;entryY=0.5;entryPerimeter=0;lucidId=O5bk9KP6apJc;" edge="1" parent="1" source="uuDwatuscmwlwmb8hPeX-8" target="uuDwatuscmwlwmb8hPeX-12">
          <mxGeometry width="100" height="100" relative="1" as="geometry">
            <Array as="points" />
          </mxGeometry>
        </mxCell>
        <mxCell id="uuDwatuscmwlwmb8hPeX-10" value="Predict" style="html=1;overflow=block;blockSpacing=1;whiteSpace=wrap;fontSize=16.7;spacing=3.8;rounded=1;absoluteArcSize=1;arcSize=9;strokeWidth=NaN;lucidId=46bkn2mSzNT6;" vertex="1" parent="1">
          <mxGeometry x="1425" y="-2187" width="120" height="86" as="geometry" />
        </mxCell>
        <mxCell id="uuDwatuscmwlwmb8hPeX-11" value="" style="html=1;jettySize=18;whiteSpace=wrap;fontSize=13;strokeColor=#3a414a;strokeOpacity=100;strokeWidth=0.8;rounded=1;arcSize=12;edgeStyle=orthogonalEdgeStyle;startArrow=none;endArrow=block;endFill=1;exitX=1.006;exitY=0.5;exitPerimeter=0;entryX=-0.004;entryY=0.522;entryPerimeter=0;lucidId=l7bk.DYITlxg;" edge="1" parent="1" source="uuDwatuscmwlwmb8hPeX-10" target="uuDwatuscmwlwmb8hPeX-8">
          <mxGeometry width="100" height="100" relative="1" as="geometry">
            <Array as="points" />
          </mxGeometry>
        </mxCell>
        <mxCell id="uuDwatuscmwlwmb8hPeX-12" value="RETURNS:&#xa;True" style="html=1;overflow=block;blockSpacing=1;whiteSpace=wrap;fontSize=16.7;spacing=9;rounded=1;absoluteArcSize=1;arcSize=9;strokeWidth=NaN;lucidId=s7bk0tZIX3CD;" vertex="1" parent="1">
          <mxGeometry x="1845" y="-2191" width="120" height="90" as="geometry" />
        </mxCell>
        <mxCell id="uuDwatuscmwlwmb8hPeX-13" value="1 - Always Taken BP" style="html=1;overflow=block;blockSpacing=1;whiteSpace=wrap;shadow=1;fontSize=16.7;spacing=9;strokeColor=none;fillColor=#FFECA9;strokeWidth=0;lucidId=1rckRtuBceTb;" vertex="1" parent="1">
          <mxGeometry x="510" y="-2187" width="450" height="450" as="geometry" />
        </mxCell>
        <mxCell id="uuDwatuscmwlwmb8hPeX-14" value="2 - Backward Taken, Forward Not Taken" style="html=1;overflow=block;blockSpacing=1;whiteSpace=wrap;fontSize=16.7;spacing=9;strokeColor=none;fillColor=#FFECA9;strokeWidth=0;lucidId=JtckmVWhgW1o;" vertex="1" parent="1">
          <mxGeometry x="510" y="-1565" width="450" height="450" as="geometry" />
        </mxCell>
        <mxCell id="uuDwatuscmwlwmb8hPeX-15" value="Direction&#xa;Predictors" style="html=1;overflow=block;blockSpacing=1;whiteSpace=wrap;fontSize=16.7;spacing=9;strokeColor=none;fillColor=#FFECA9;strokeWidth=0;lucidId=ZuckLceTMZb~;" vertex="1" parent="1">
          <mxGeometry x="990" y="-2540" width="255" height="255" as="geometry" />
        </mxCell>
        <mxCell id="uuDwatuscmwlwmb8hPeX-16" value="Branch Predictor" style="html=1;overflow=block;blockSpacing=1;whiteSpace=wrap;fontSize=16.7;spacing=9;strokeColor=none;fillColor=#FFECA9;strokeWidth=0;lucidId=~vcks.mbnJ2U;" vertex="1" parent="1">
          <mxGeometry x="-1315" y="-2510" width="270" height="270" as="geometry" />
        </mxCell>
        <mxCell id="uuDwatuscmwlwmb8hPeX-17" value="" style="html=1;overflow=block;blockSpacing=1;whiteSpace=wrap;shape=image;fontSize=13;spacing=0;strokeColor=none;strokeOpacity=100;rounded=1;absoluteArcSize=1;arcSize=9;strokeWidth=0;image=https://images.lucid.app/images/3ca19639-ea1f-423f-9327-d27c26be29cb/content;imageAspect=0;lucidId=Zwck1WDIHgvC;" vertex="1" parent="1">
          <mxGeometry x="-2200" y="-2510" width="826" height="467" as="geometry" />
        </mxCell>
        <mxCell id="uuDwatuscmwlwmb8hPeX-18" value="Branch Predictor" style="html=1;overflow=block;blockSpacing=1;whiteSpace=wrap;fontSize=16.7;spacing=9;rounded=1;absoluteArcSize=1;arcSize=9;strokeWidth=NaN;lucidId=~yck88rrfHz_;" vertex="1" parent="1">
          <mxGeometry x="-1240" y="-2150" width="120" height="90" as="geometry" />
        </mxCell>
        <mxCell id="uuDwatuscmwlwmb8hPeX-19" value="" style="html=1;jettySize=18;whiteSpace=wrap;fontSize=13;strokeColor=#3a414a;strokeOpacity=100;strokeWidth=0.8;rounded=1;arcSize=12;edgeStyle=orthogonalEdgeStyle;startArrow=none;endArrow=block;endFill=1;exitX=0.5;exitY=1.008;exitPerimeter=0;entryX=0.5;entryY=-0.008;entryPerimeter=0;lucidId=uzckwsu8T0K0;" edge="1" parent="1" source="uuDwatuscmwlwmb8hPeX-18" target="uuDwatuscmwlwmb8hPeX-20">
          <mxGeometry width="100" height="100" relative="1" as="geometry">
            <Array as="points" />
          </mxGeometry>
        </mxCell>
        <mxCell id="uuDwatuscmwlwmb8hPeX-20" value="Data" style="html=1;overflow=block;blockSpacing=1;whiteSpace=wrap;fontSize=16.7;spacing=9;rounded=1;absoluteArcSize=1;arcSize=9;strokeWidth=NaN;lucidId=vzck_5pMrunn;" vertex="1" parent="1">
          <mxGeometry x="-1360" y="-2030" width="120" height="90" as="geometry" />
        </mxCell>
        <mxCell id="uuDwatuscmwlwmb8hPeX-21" value="" style="html=1;jettySize=18;whiteSpace=wrap;fontSize=13;strokeColor=#3a414a;strokeOpacity=100;strokeWidth=0.8;rounded=1;arcSize=12;edgeStyle=orthogonalEdgeStyle;startArrow=none;endArrow=block;endFill=1;exitX=0.5;exitY=1.008;exitPerimeter=0;entryX=0.5;entryY=-0.008;entryPerimeter=0;lucidId=Wzckco4oWcKX;" edge="1" parent="1" source="uuDwatuscmwlwmb8hPeX-18" target="uuDwatuscmwlwmb8hPeX-22">
          <mxGeometry width="100" height="100" relative="1" as="geometry">
            <Array as="points" />
          </mxGeometry>
        </mxCell>
        <mxCell id="uuDwatuscmwlwmb8hPeX-22" value="Funcitonality" style="html=1;overflow=block;blockSpacing=1;whiteSpace=wrap;fontSize=16.7;spacing=9;rounded=1;absoluteArcSize=1;arcSize=9;strokeWidth=NaN;lucidId=XzckBp6csw0f;" vertex="1" parent="1">
          <mxGeometry x="-1120" y="-2030" width="120" height="90" as="geometry" />
        </mxCell>
        <mxCell id="uuDwatuscmwlwmb8hPeX-23" value="&lt;ul style=&quot;margin: 0px; padding-left: 10px;list-style-position: inside; list-style-type:disc&quot;&gt;&lt;li style=&quot;text-align:left;font-size:16.7px;&quot;&gt;&lt;span style=&quot;margin-left: 0px;margin-top: -2px;&quot;&gt;&lt;span style=&quot;font-size:16.7px;&quot;&gt;Predicts the next instruction to be fetched by the CPU&lt;/span&gt;&lt;/span&gt;&lt;/li&gt;&lt;/ul&gt;" style="html=1;overflow=block;blockSpacing=1;whiteSpace=wrap;fontSize=13;spacing=0;rounded=1;absoluteArcSize=1;arcSize=9;strokeWidth=NaN;lucidId=TAcka.jGkqfJ;" vertex="1" parent="1">
          <mxGeometry x="-970" y="-2480" width="180" height="45" as="geometry" />
        </mxCell>
        <mxCell id="uuDwatuscmwlwmb8hPeX-24" value="Backward Taken, Forward Not Taken" style="html=1;overflow=block;blockSpacing=1;whiteSpace=wrap;fontSize=16.7;spacing=9;rounded=1;absoluteArcSize=1;arcSize=9;strokeWidth=NaN;lucidId=8c9kMYV7Qv1u;" vertex="1" parent="1">
          <mxGeometry x="1170" y="-1449" width="120" height="90" as="geometry" />
        </mxCell>
        <mxCell id="uuDwatuscmwlwmb8hPeX-75" value="" style="edgeStyle=orthogonalEdgeStyle;rounded=0;orthogonalLoop=1;jettySize=auto;html=1;" edge="1" parent="1" source="uuDwatuscmwlwmb8hPeX-25" target="uuDwatuscmwlwmb8hPeX-74">
          <mxGeometry relative="1" as="geometry" />
        </mxCell>
        <mxCell id="uuDwatuscmwlwmb8hPeX-25" value="Data" style="html=1;overflow=block;blockSpacing=1;whiteSpace=wrap;fontSize=16.7;fontColor=#3a414a;spacing=9;strokeColor=#282c33;strokeOpacity=100;fillOpacity=100;rounded=1;absoluteArcSize=1;arcSize=9;fillColor=#ffffff;strokeWidth=1.5;lucidId=8c9kD0o6.5k8;" vertex="1" parent="1">
          <mxGeometry x="1020" y="-1329" width="120" height="90" as="geometry" />
        </mxCell>
        <mxCell id="uuDwatuscmwlwmb8hPeX-26" value="Functionality" style="html=1;overflow=block;blockSpacing=1;whiteSpace=wrap;fontSize=16.7;spacing=9;rounded=1;absoluteArcSize=1;arcSize=9;strokeWidth=NaN;lucidId=8c9kfbl39SHX;" vertex="1" parent="1">
          <mxGeometry x="1320" y="-1329" width="120" height="90" as="geometry" />
        </mxCell>
        <mxCell id="uuDwatuscmwlwmb8hPeX-27" value="" style="html=1;jettySize=18;whiteSpace=wrap;fontSize=13;strokeColor=#3a414a;strokeOpacity=100;strokeWidth=0.8;rounded=1;arcSize=12;edgeStyle=orthogonalEdgeStyle;startArrow=none;endArrow=block;endFill=1;exitX=0.5;exitY=1.008;exitPerimeter=0;entryX=0.5;entryY=-0.008;entryPerimeter=0;lucidId=8c9k0im.X_DS;" edge="1" parent="1" source="uuDwatuscmwlwmb8hPeX-24" target="uuDwatuscmwlwmb8hPeX-26">
          <mxGeometry width="100" height="100" relative="1" as="geometry">
            <Array as="points" />
          </mxGeometry>
        </mxCell>
        <mxCell id="uuDwatuscmwlwmb8hPeX-28" value="" style="html=1;jettySize=18;whiteSpace=wrap;fontSize=13;strokeColor=#3a414a;strokeOpacity=100;strokeWidth=0.8;rounded=1;arcSize=12;edgeStyle=orthogonalEdgeStyle;startArrow=none;endArrow=block;endFill=1;exitX=0.5;exitY=1.008;exitPerimeter=0;entryX=0.5;entryY=-0.008;entryPerimeter=0;lucidId=8c9kHfaAQ382;" edge="1" parent="1" source="uuDwatuscmwlwmb8hPeX-24" target="uuDwatuscmwlwmb8hPeX-25">
          <mxGeometry width="100" height="100" relative="1" as="geometry">
            <Array as="points" />
          </mxGeometry>
        </mxCell>
        <mxCell id="uuDwatuscmwlwmb8hPeX-29" value="Predict" style="html=1;overflow=block;blockSpacing=1;whiteSpace=wrap;fontSize=16.7;spacing=9;rounded=1;absoluteArcSize=1;arcSize=9;strokeWidth=NaN;lucidId=8c9k6aIw7lAV;" vertex="1" parent="1">
          <mxGeometry x="1245" y="-1183" width="120" height="90" as="geometry" />
        </mxCell>
        <mxCell id="uuDwatuscmwlwmb8hPeX-30" value="" style="html=1;jettySize=18;whiteSpace=wrap;fontSize=13;strokeColor=#3a414a;strokeOpacity=100;strokeWidth=0.8;rounded=1;arcSize=12;edgeStyle=orthogonalEdgeStyle;startArrow=none;endArrow=block;endFill=1;exitX=0.496;exitY=1.008;exitPerimeter=0;entryX=0.496;entryY=-0.008;entryPerimeter=0;lucidId=8c9kitW1Y-cf;" edge="1" parent="1" source="uuDwatuscmwlwmb8hPeX-26" target="uuDwatuscmwlwmb8hPeX-29">
          <mxGeometry width="100" height="100" relative="1" as="geometry">
            <Array as="points" />
          </mxGeometry>
        </mxCell>
        <mxCell id="uuDwatuscmwlwmb8hPeX-31" value="INPUTS:&#xa;int Program Counter" style="html=1;overflow=block;blockSpacing=1;whiteSpace=wrap;fontSize=16.7;spacing=9;rounded=1;absoluteArcSize=1;arcSize=9;strokeWidth=NaN;lucidId=8c9k5pr_DzDx;" vertex="1" parent="1">
          <mxGeometry x="1590" y="-1565" width="180" height="90" as="geometry" />
        </mxCell>
        <mxCell id="uuDwatuscmwlwmb8hPeX-32" value="Predict" style="html=1;overflow=block;blockSpacing=1;whiteSpace=wrap;fontSize=16.7;spacing=3.8;rounded=1;absoluteArcSize=1;arcSize=9;strokeWidth=NaN;lucidId=8c9krW--IpCT;" vertex="1" parent="1">
          <mxGeometry x="1425" y="-1561" width="120" height="86" as="geometry" />
        </mxCell>
        <mxCell id="uuDwatuscmwlwmb8hPeX-33" value="" style="html=1;jettySize=18;whiteSpace=wrap;fontSize=13;strokeColor=#3a414a;strokeOpacity=100;strokeWidth=0.8;rounded=1;arcSize=12;edgeStyle=orthogonalEdgeStyle;startArrow=none;endArrow=block;endFill=1;exitX=1.006;exitY=0.5;exitPerimeter=0;entryX=-0.004;entryY=0.522;entryPerimeter=0;lucidId=8c9kmN0n2Hg2;" edge="1" parent="1" source="uuDwatuscmwlwmb8hPeX-32" target="uuDwatuscmwlwmb8hPeX-31">
          <mxGeometry width="100" height="100" relative="1" as="geometry">
            <Array as="points" />
          </mxGeometry>
        </mxCell>
        <mxCell id="uuDwatuscmwlwmb8hPeX-34" value="RETURNS:&#xa;bool Prediction " style="html=1;overflow=block;blockSpacing=1;whiteSpace=wrap;fontSize=16.7;spacing=9;rounded=1;absoluteArcSize=1;arcSize=9;strokeWidth=NaN;lucidId=8c9kwbLM9wAJ;" vertex="1" parent="1">
          <mxGeometry x="2250" y="-1565" width="150" height="90" as="geometry" />
        </mxCell>
        <mxCell id="uuDwatuscmwlwmb8hPeX-35" value="Branch" style="html=1;overflow=block;blockSpacing=1;whiteSpace=wrap;shape=process;fontSize=16.7;spacing=3.8;rounded=1;absoluteArcSize=1;arcSize=9;strokeWidth=NaN;lucidId=t8_kdd7iGehU;" vertex="1" parent="1">
          <mxGeometry x="-840" y="-3615" width="120" height="90" as="geometry" />
        </mxCell>
        <mxCell id="uuDwatuscmwlwmb8hPeX-36" value="Is instruction in decode == Target location?" style="html=1;overflow=block;blockSpacing=1;whiteSpace=wrap;rhombus;fontSize=16.7;spacing=3.8;rounded=1;absoluteArcSize=1;arcSize=9;strokeWidth=NaN;lucidId=G-_kBLNaIpqO;" vertex="1" parent="1">
          <mxGeometry x="-877" y="-3480" width="195" height="135" as="geometry" />
        </mxCell>
        <mxCell id="uuDwatuscmwlwmb8hPeX-37" value="int Target Location" style="html=1;overflow=block;blockSpacing=1;whiteSpace=wrap;fontSize=16.7;spacing=9;rounded=1;absoluteArcSize=1;arcSize=9;strokeWidth=NaN;lucidId=M-_kORSJOAoa;" vertex="1" parent="1">
          <mxGeometry x="-1020" y="-3615" width="120" height="90" as="geometry" />
        </mxCell>
        <mxCell id="uuDwatuscmwlwmb8hPeX-38" value="" style="html=1;jettySize=18;whiteSpace=wrap;fontSize=13;strokeColor=#3a414a;strokeOpacity=100;strokeWidth=0.8;rounded=1;arcSize=12;edgeStyle=orthogonalEdgeStyle;startArrow=none;endArrow=block;endFill=1;exitX=1.006;exitY=0.5;exitPerimeter=0;entryX=-0.006;entryY=0.5;entryPerimeter=0;lucidId=U-_k8hW2vPJL;" edge="1" parent="1" source="uuDwatuscmwlwmb8hPeX-37" target="uuDwatuscmwlwmb8hPeX-35">
          <mxGeometry width="100" height="100" relative="1" as="geometry">
            <Array as="points" />
          </mxGeometry>
        </mxCell>
        <mxCell id="uuDwatuscmwlwmb8hPeX-39" value="" style="html=1;jettySize=18;whiteSpace=wrap;fontSize=13;strokeColor=#3a414a;strokeOpacity=100;strokeWidth=0.8;rounded=1;arcSize=12;edgeStyle=orthogonalEdgeStyle;startArrow=none;endArrow=block;endFill=1;exitX=0.5;exitY=1.008;exitPerimeter=0;entryX=0.5;entryY=0.005;entryPerimeter=0;lucidId=W-_k-Bh_kWu5;" edge="1" parent="1" source="uuDwatuscmwlwmb8hPeX-35" target="uuDwatuscmwlwmb8hPeX-36">
          <mxGeometry width="100" height="100" relative="1" as="geometry">
            <Array as="points" />
          </mxGeometry>
        </mxCell>
        <mxCell id="uuDwatuscmwlwmb8hPeX-40" value="" style="html=1;jettySize=18;whiteSpace=wrap;fontSize=13.3;fontColor=#333333;fontStyle=1;strokeColor=#3a414a;strokeOpacity=100;strokeWidth=0.8;rounded=1;arcSize=12;edgeStyle=orthogonalEdgeStyle;startArrow=none;endArrow=block;endFill=1;exitX=0.5;exitY=0.995;exitPerimeter=0;entryX=0.5;entryY=0.005;entryPerimeter=0;lucidId=v__knXyuIOoh;" edge="1" parent="1" source="uuDwatuscmwlwmb8hPeX-36" target="uuDwatuscmwlwmb8hPeX-48">
          <mxGeometry width="100" height="100" relative="1" as="geometry">
            <Array as="points" />
          </mxGeometry>
        </mxCell>
        <mxCell id="uuDwatuscmwlwmb8hPeX-41" value="Yes" style="text;html=1;resizable=0;labelBackgroundColor=default;align=center;verticalAlign=middle;fontStyle=1;fontColor=#333333;fontSize=13.3;" vertex="1" parent="uuDwatuscmwlwmb8hPeX-40">
          <mxGeometry relative="1" as="geometry" />
        </mxCell>
        <mxCell id="uuDwatuscmwlwmb8hPeX-42" value="" style="html=1;jettySize=18;whiteSpace=wrap;fontSize=13.3;fontColor=#333333;fontStyle=1;strokeColor=#3a414a;strokeOpacity=100;strokeWidth=0.8;rounded=1;arcSize=12;edgeStyle=orthogonalEdgeStyle;startArrow=none;endArrow=block;endFill=1;exitX=0.992;exitY=0.5;exitPerimeter=0;entryX=0.5;entryY=-0.008;entryPerimeter=0;lucidId=b._kbjs__ZK9;" edge="1" parent="1" source="uuDwatuscmwlwmb8hPeX-36" target="uuDwatuscmwlwmb8hPeX-44">
          <mxGeometry width="100" height="100" relative="1" as="geometry">
            <Array as="points" />
          </mxGeometry>
        </mxCell>
        <mxCell id="uuDwatuscmwlwmb8hPeX-43" value="No" style="text;html=1;resizable=0;labelBackgroundColor=default;align=center;verticalAlign=middle;fontStyle=1;fontColor=#333333;fontSize=13.3;" vertex="1" parent="uuDwatuscmwlwmb8hPeX-42">
          <mxGeometry relative="1" as="geometry" />
        </mxCell>
        <mxCell id="uuDwatuscmwlwmb8hPeX-44" value="Remove all entries in pipeline" style="html=1;overflow=block;blockSpacing=1;whiteSpace=wrap;fontSize=16.7;spacing=9;rounded=1;absoluteArcSize=1;arcSize=9;strokeWidth=NaN;lucidId=c._kvRQDNXIM;" vertex="1" parent="1">
          <mxGeometry x="-584" y="-3390" width="120" height="90" as="geometry" />
        </mxCell>
        <mxCell id="uuDwatuscmwlwmb8hPeX-45" value="" style="html=1;jettySize=18;whiteSpace=wrap;fontSize=13;strokeColor=#3a414a;strokeOpacity=100;strokeWidth=0.8;rounded=1;arcSize=12;edgeStyle=orthogonalEdgeStyle;startArrow=none;endArrow=block;endFill=1;exitX=0.5;exitY=1.008;exitPerimeter=0;entryX=0.5;entryY=-0.008;entryPerimeter=0;lucidId=B._kDAAA.THo;" edge="1" parent="1" source="uuDwatuscmwlwmb8hPeX-44" target="uuDwatuscmwlwmb8hPeX-46">
          <mxGeometry width="100" height="100" relative="1" as="geometry">
            <Array as="points" />
          </mxGeometry>
        </mxCell>
        <mxCell id="uuDwatuscmwlwmb8hPeX-46" value="Program Counter = Target" style="html=1;overflow=block;blockSpacing=1;whiteSpace=wrap;fontSize=16.7;spacing=9;rounded=1;absoluteArcSize=1;arcSize=9;strokeWidth=NaN;lucidId=C._kmiZCPtfp;" vertex="1" parent="1">
          <mxGeometry x="-584" y="-3255" width="120" height="90" as="geometry" />
        </mxCell>
        <mxCell id="uuDwatuscmwlwmb8hPeX-47" value="" style="html=1;jettySize=18;whiteSpace=wrap;fontSize=13;strokeColor=#3a414a;strokeOpacity=100;strokeWidth=0.8;rounded=1;arcSize=12;edgeStyle=orthogonalEdgeStyle;startArrow=none;endArrow=block;endFill=1;exitX=0.5;exitY=1.008;exitPerimeter=0;entryX=0.5;entryY=0.005;entryPerimeter=0;lucidId=3._k~e4HPRZ-;" edge="1" parent="1" source="uuDwatuscmwlwmb8hPeX-46" target="uuDwatuscmwlwmb8hPeX-48">
          <mxGeometry width="100" height="100" relative="1" as="geometry">
            <Array as="points" />
          </mxGeometry>
        </mxCell>
        <mxCell id="uuDwatuscmwlwmb8hPeX-48" value="Is this instruction in BTB?" style="html=1;overflow=block;blockSpacing=1;whiteSpace=wrap;rhombus;fontSize=16.7;spacing=3.8;rounded=1;absoluteArcSize=1;arcSize=9;strokeWidth=NaN;lucidId=t~_ksssYd~lp;" vertex="1" parent="1">
          <mxGeometry x="-877" y="-3150" width="195" height="135" as="geometry" />
        </mxCell>
        <mxCell id="uuDwatuscmwlwmb8hPeX-49" value="" style="html=1;jettySize=18;whiteSpace=wrap;fontSize=13.3;fontColor=#333333;fontStyle=1;strokeColor=#3a414a;strokeOpacity=100;strokeWidth=0.8;rounded=1;arcSize=12;edgeStyle=orthogonalEdgeStyle;startArrow=none;endArrow=block;endFill=1;exitX=0.992;exitY=0.5;exitPerimeter=0;entryX=-0.004;entryY=0.5;entryPerimeter=0;lucidId=2~_kViBqfz-K;" edge="1" parent="1" source="uuDwatuscmwlwmb8hPeX-48" target="uuDwatuscmwlwmb8hPeX-51">
          <mxGeometry width="100" height="100" relative="1" as="geometry">
            <Array as="points" />
          </mxGeometry>
        </mxCell>
        <mxCell id="uuDwatuscmwlwmb8hPeX-50" value="No" style="text;html=1;resizable=0;labelBackgroundColor=default;align=center;verticalAlign=middle;fontStyle=1;fontColor=#333333;fontSize=13.3;" vertex="1" parent="uuDwatuscmwlwmb8hPeX-49">
          <mxGeometry relative="1" as="geometry" />
        </mxCell>
        <mxCell id="uuDwatuscmwlwmb8hPeX-51" value="Add {int instruction : int target} to BTB" style="html=1;overflow=block;blockSpacing=1;whiteSpace=wrap;fontSize=16.7;spacing=9;rounded=1;absoluteArcSize=1;arcSize=9;strokeWidth=NaN;lucidId=pb.keqfVLoMM;" vertex="1" parent="1">
          <mxGeometry x="-614" y="-3131" width="180" height="98" as="geometry" />
        </mxCell>
        <mxCell id="uuDwatuscmwlwmb8hPeX-52" value="Update Direction Predictor (if needed)" style="html=1;overflow=block;blockSpacing=1;whiteSpace=wrap;shape=process;fontSize=16.7;spacing=9;rounded=1;absoluteArcSize=1;arcSize=9;strokeWidth=NaN;lucidId=4b.k-3mUlPhH;" vertex="1" parent="1">
          <mxGeometry x="-870" y="-2940" width="180" height="98" as="geometry" />
        </mxCell>
        <mxCell id="uuDwatuscmwlwmb8hPeX-53" value="" style="html=1;jettySize=18;whiteSpace=wrap;fontSize=13.3;fontColor=#333333;fontStyle=1;strokeColor=#3a414a;strokeOpacity=100;strokeWidth=0.8;rounded=1;arcSize=12;edgeStyle=orthogonalEdgeStyle;startArrow=none;endArrow=block;endFill=1;exitX=0.5;exitY=0.995;exitPerimeter=0;entryX=0.5;entryY=-0.008;entryPerimeter=0;lucidId=Pc.kxPv7OUn2;" edge="1" parent="1" source="uuDwatuscmwlwmb8hPeX-48" target="uuDwatuscmwlwmb8hPeX-52">
          <mxGeometry width="100" height="100" relative="1" as="geometry">
            <Array as="points" />
          </mxGeometry>
        </mxCell>
        <mxCell id="uuDwatuscmwlwmb8hPeX-54" value="Yes" style="text;html=1;resizable=0;labelBackgroundColor=default;align=center;verticalAlign=middle;fontStyle=1;fontColor=#333333;fontSize=13.3;" vertex="1" parent="uuDwatuscmwlwmb8hPeX-53">
          <mxGeometry relative="1" as="geometry" />
        </mxCell>
        <mxCell id="uuDwatuscmwlwmb8hPeX-55" value="" style="html=1;jettySize=18;whiteSpace=wrap;fontSize=13;strokeColor=#3a414a;strokeOpacity=100;strokeWidth=0.8;rounded=1;arcSize=12;edgeStyle=orthogonalEdgeStyle;startArrow=none;endArrow=block;endFill=1;exitX=0.5;exitY=1.008;exitPerimeter=0;lucidId=md.ktP.Gm5WD;" edge="1" parent="1" source="uuDwatuscmwlwmb8hPeX-51">
          <mxGeometry width="100" height="100" relative="1" as="geometry">
            <Array as="points" />
            <mxPoint x="-780" y="-2968" as="targetPoint" />
          </mxGeometry>
        </mxCell>
        <mxCell id="uuDwatuscmwlwmb8hPeX-56" value="RETURN" style="html=1;overflow=block;blockSpacing=1;whiteSpace=wrap;fontSize=16.7;spacing=3.8;rounded=1;absoluteArcSize=1;arcSize=9;strokeWidth=NaN;lucidId=Kd.kfbQ0gm8v;" vertex="1" parent="1">
          <mxGeometry x="-840" y="-2805" width="120" height="60" as="geometry" />
        </mxCell>
        <mxCell id="uuDwatuscmwlwmb8hPeX-57" value="" style="html=1;jettySize=18;whiteSpace=wrap;fontSize=13;strokeColor=#3a414a;strokeOpacity=100;strokeWidth=0.8;rounded=1;arcSize=12;edgeStyle=orthogonalEdgeStyle;startArrow=none;endArrow=block;endFill=1;exitX=0.5;exitY=1.008;exitPerimeter=0;entryX=0.5;entryY=-0.013;entryPerimeter=0;lucidId=Od.k8pdc~07t;" edge="1" parent="1" source="uuDwatuscmwlwmb8hPeX-52" target="uuDwatuscmwlwmb8hPeX-56">
          <mxGeometry width="100" height="100" relative="1" as="geometry">
            <Array as="points" />
          </mxGeometry>
        </mxCell>
        <mxCell id="uuDwatuscmwlwmb8hPeX-58" value="" style="strokeColor=none;fillColor=none;whiteSpace=wrap;fontSize=16.7;align=left;spacing=3.8;rounded=1;absoluteArcSize=1;arcSize=9;strokeWidth=NaN;html=1;" vertex="1" parent="1">
          <mxGeometry x="-1050" y="-2955" width="150" height="120" as="geometry" />
        </mxCell>
        <mxCell id="uuDwatuscmwlwmb8hPeX-59" value="" style="shape=curlyBracket;rounded=1;whiteSpace=wrap;fontSize=16.7;align=left;spacing=3.8;strokeColor=#unset;fillColor=#unset;strokeWidth=NaN;" vertex="1" parent="uuDwatuscmwlwmb8hPeX-58">
          <mxGeometry x="135" width="15" height="120" as="geometry" />
        </mxCell>
        <mxCell id="uuDwatuscmwlwmb8hPeX-60" value="Each Direction Predictor should have its own update function" style="strokeColor=none;fillColor=none;whiteSpace=wrap;fontSize=16.7;align=left;spacing=3.8;rounded=1;absoluteArcSize=1;arcSize=9;strokeWidth=NaN;" vertex="1" parent="uuDwatuscmwlwmb8hPeX-58">
          <mxGeometry width="135" height="120" as="geometry" />
        </mxCell>
        <mxCell id="uuDwatuscmwlwmb8hPeX-61" value="Update Predictor" style="html=1;overflow=block;blockSpacing=1;whiteSpace=wrap;fontSize=16.7;spacing=9;rounded=1;absoluteArcSize=1;arcSize=9;strokeWidth=NaN;lucidId=.2MlqWRWDMih;" vertex="1" parent="1">
          <mxGeometry x="1425" y="-1183" width="120" height="90" as="geometry" />
        </mxCell>
        <mxCell id="uuDwatuscmwlwmb8hPeX-62" value="" style="html=1;jettySize=18;whiteSpace=wrap;fontSize=13;strokeColor=#3a414a;strokeOpacity=100;strokeWidth=0.8;rounded=1;arcSize=12;edgeStyle=orthogonalEdgeStyle;startArrow=none;endArrow=block;endFill=1;exitX=0.5;exitY=1.008;exitPerimeter=0;entryX=0.5;entryY=-0.008;entryPerimeter=0;lucidId=q3MlGEHJLPIf;" edge="1" parent="1" source="uuDwatuscmwlwmb8hPeX-26" target="uuDwatuscmwlwmb8hPeX-61">
          <mxGeometry width="100" height="100" relative="1" as="geometry">
            <Array as="points" />
          </mxGeometry>
        </mxCell>
        <mxCell id="uuDwatuscmwlwmb8hPeX-63" value="" style="html=1;jettySize=18;whiteSpace=wrap;fontSize=13;strokeColor=#3a414a;strokeOpacity=100;strokeWidth=0.8;rounded=1;arcSize=12;edgeStyle=orthogonalEdgeStyle;startArrow=none;endArrow=block;endFill=1;exitX=1.004;exitY=0.5;exitPerimeter=0;entryX=-0.002;entryY=0.5;entryPerimeter=0;lucidId=Z3MlrU3.1DTn;" edge="1" parent="1" source="uuDwatuscmwlwmb8hPeX-31" target="uuDwatuscmwlwmb8hPeX-64">
          <mxGeometry width="100" height="100" relative="1" as="geometry">
            <Array as="points" />
          </mxGeometry>
        </mxCell>
        <mxCell id="uuDwatuscmwlwmb8hPeX-64" value="&lt;ul style=&quot;margin: 0px; padding-left: 10px;list-style-position: inside; list-style-type:disc&quot;&gt;&lt;li style=&quot;text-align:left;font-size:16.7px;&quot;&gt;&lt;span style=&quot;margin-left: 0px;margin-top: -2px;&quot;&gt;&lt;span style=&quot;font-size:16.7px;&quot;&gt;Checks for PC value in Predictor cache&lt;/span&gt;&lt;/span&gt;&lt;/li&gt;&lt;li style=&quot;text-align:left;font-size:16.7px;&quot;&gt;&lt;span style=&quot;margin-left: 0px;margin-top: -2px;&quot;&gt;&lt;span style=&quot;font-size:16.7px;&quot;&gt;If exists, and prediction is True, return True&lt;/span&gt;&lt;/span&gt;&lt;/li&gt;&lt;li style=&quot;text-align:left;font-size:16.7px;&quot;&gt;&lt;span style=&quot;margin-left: 0px;margin-top: -2px;&quot;&gt;&lt;span style=&quot;font-size:16.7px;&quot;&gt;Else, return False&lt;/span&gt;&lt;/span&gt;&lt;/li&gt;&lt;/ul&gt;" style="html=1;overflow=block;blockSpacing=1;whiteSpace=wrap;fontSize=13;spacing=9;rounded=1;absoluteArcSize=1;arcSize=9;strokeWidth=NaN;lucidId=Z3MlEIxHEbWS;" vertex="1" parent="1">
          <mxGeometry x="1830" y="-1565" width="345" height="90" as="geometry" />
        </mxCell>
        <mxCell id="uuDwatuscmwlwmb8hPeX-65" value="" style="html=1;jettySize=18;whiteSpace=wrap;fontSize=13;strokeColor=#3a414a;strokeOpacity=100;strokeWidth=0.8;rounded=1;arcSize=12;edgeStyle=orthogonalEdgeStyle;startArrow=none;endArrow=block;endFill=1;exitX=1.002;exitY=0.5;exitPerimeter=0;entryX=-0.005;entryY=0.5;entryPerimeter=0;lucidId=43MlArSj0O9k;" edge="1" parent="1" source="uuDwatuscmwlwmb8hPeX-64" target="uuDwatuscmwlwmb8hPeX-34">
          <mxGeometry width="100" height="100" relative="1" as="geometry">
            <Array as="points" />
          </mxGeometry>
        </mxCell>
        <mxCell id="uuDwatuscmwlwmb8hPeX-67" value="INPUTS:&lt;br&gt;&lt;div&gt;int curent line number,&lt;/div&gt;&lt;div&gt;int branch target&lt;br&gt;&lt;/div&gt;" style="html=1;overflow=block;blockSpacing=1;whiteSpace=wrap;fontSize=16.7;spacing=9;rounded=1;absoluteArcSize=1;arcSize=9;strokeWidth=NaN;lucidId=8c9k5pr_DzDx;" vertex="1" parent="1">
          <mxGeometry x="1590" y="-1449" width="180" height="90" as="geometry" />
        </mxCell>
        <mxCell id="uuDwatuscmwlwmb8hPeX-68" value="Update Predictor" style="html=1;overflow=block;blockSpacing=1;whiteSpace=wrap;fontSize=16.7;spacing=3.8;rounded=1;absoluteArcSize=1;arcSize=9;strokeWidth=NaN;lucidId=8c9krW--IpCT;" vertex="1" parent="1">
          <mxGeometry x="1425" y="-1445" width="120" height="86" as="geometry" />
        </mxCell>
        <mxCell id="uuDwatuscmwlwmb8hPeX-69" value="" style="html=1;jettySize=18;whiteSpace=wrap;fontSize=13;strokeColor=#3a414a;strokeOpacity=100;strokeWidth=0.8;rounded=1;arcSize=12;edgeStyle=orthogonalEdgeStyle;startArrow=none;endArrow=block;endFill=1;exitX=1.006;exitY=0.5;exitPerimeter=0;entryX=-0.004;entryY=0.522;entryPerimeter=0;lucidId=8c9kmN0n2Hg2;" edge="1" parent="1" source="uuDwatuscmwlwmb8hPeX-68" target="uuDwatuscmwlwmb8hPeX-67">
          <mxGeometry width="100" height="100" relative="1" as="geometry">
            <Array as="points" />
          </mxGeometry>
        </mxCell>
        <mxCell id="uuDwatuscmwlwmb8hPeX-70" value="&lt;div&gt;RETURNS:&lt;/div&gt;&lt;div&gt;None&lt;br&gt;&lt;/div&gt;" style="html=1;overflow=block;blockSpacing=1;whiteSpace=wrap;fontSize=16.7;spacing=9;rounded=1;absoluteArcSize=1;arcSize=9;strokeWidth=NaN;lucidId=8c9kwbLM9wAJ;" vertex="1" parent="1">
          <mxGeometry x="2320" y="-1449" width="150" height="90" as="geometry" />
        </mxCell>
        <mxCell id="uuDwatuscmwlwmb8hPeX-71" value="" style="html=1;jettySize=18;whiteSpace=wrap;fontSize=13;strokeColor=#3a414a;strokeOpacity=100;strokeWidth=0.8;rounded=1;arcSize=12;edgeStyle=orthogonalEdgeStyle;startArrow=none;endArrow=block;endFill=1;exitX=1.004;exitY=0.5;exitPerimeter=0;entryX=-0.002;entryY=0.5;entryPerimeter=0;lucidId=Z3MlrU3.1DTn;" edge="1" parent="1" source="uuDwatuscmwlwmb8hPeX-67" target="uuDwatuscmwlwmb8hPeX-72">
          <mxGeometry width="100" height="100" relative="1" as="geometry">
            <Array as="points" />
          </mxGeometry>
        </mxCell>
        <mxCell id="uuDwatuscmwlwmb8hPeX-72" value="&lt;ul style=&quot;margin: 0px; padding-left: 10px;list-style-position: inside; list-style-type:disc&quot;&gt;&lt;li style=&quot;text-align:left;font-size:16.7px;&quot;&gt;If current line currently in predictor cache, return&lt;br&gt;&lt;/li&gt;&lt;li style=&quot;text-align:left;font-size:16.7px;&quot;&gt;If branch target &amp;lt; current line, then that&#39;s a backward branch, so add {current line: True} to predictor cache&lt;/li&gt;&lt;li style=&quot;text-align:left;font-size:16.7px;&quot;&gt;Else, add {current line: False}, to predictor cache&lt;br&gt;&lt;/li&gt;&lt;/ul&gt;" style="html=1;overflow=block;blockSpacing=1;whiteSpace=wrap;fontSize=13;spacing=9;rounded=1;absoluteArcSize=1;arcSize=9;strokeWidth=NaN;lucidId=Z3MlEIxHEbWS;" vertex="1" parent="1">
          <mxGeometry x="1830" y="-1449" width="440" height="90" as="geometry" />
        </mxCell>
        <mxCell id="uuDwatuscmwlwmb8hPeX-73" value="" style="html=1;jettySize=18;whiteSpace=wrap;fontSize=13;strokeColor=#3a414a;strokeOpacity=100;strokeWidth=0.8;rounded=1;arcSize=12;edgeStyle=orthogonalEdgeStyle;startArrow=none;endArrow=block;endFill=1;exitX=1.002;exitY=0.5;exitPerimeter=0;entryX=-0.005;entryY=0.5;entryPerimeter=0;lucidId=43MlArSj0O9k;" edge="1" parent="1" source="uuDwatuscmwlwmb8hPeX-72" target="uuDwatuscmwlwmb8hPeX-70">
          <mxGeometry width="100" height="100" relative="1" as="geometry">
            <Array as="points" />
          </mxGeometry>
        </mxCell>
        <mxCell id="uuDwatuscmwlwmb8hPeX-74" value="&lt;div&gt;dict[]&lt;/div&gt;&lt;div&gt;Predictor Cache&lt;/div&gt;" style="html=1;overflow=block;blockSpacing=1;whiteSpace=wrap;fontSize=16.7;fontColor=#3a414a;spacing=9;strokeColor=#282c33;strokeOpacity=100;fillOpacity=100;rounded=1;absoluteArcSize=1;arcSize=9;fillColor=#ffffff;strokeWidth=1.5;lucidId=8c9kD0o6.5k8;" vertex="1" parent="1">
          <mxGeometry x="1020" y="-1183" width="120" height="90" as="geometry" />
        </mxCell>
        <mxCell id="uuDwatuscmwlwmb8hPeX-76" value="" style="strokeWidth=2;html=1;shape=mxgraph.flowchart.annotation_2;align=left;labelPosition=right;pointerEvents=1;" vertex="1" parent="1">
          <mxGeometry x="960" y="-1193" width="50" height="100" as="geometry" />
        </mxCell>
        <mxCell id="uuDwatuscmwlwmb8hPeX-77" value="{line number : whether it should be predicted or not}" style="text;html=1;align=center;verticalAlign=middle;whiteSpace=wrap;rounded=0;" vertex="1" parent="1">
          <mxGeometry x="800" y="-1158" width="160" height="30" as="geometry" />
        </mxCell>
        <mxCell id="uuDwatuscmwlwmb8hPeX-78" value="Branch Target Buffer" style="html=1;overflow=block;blockSpacing=1;whiteSpace=wrap;fontSize=16.7;spacing=9;strokeColor=none;fillColor=#FFECA9;strokeWidth=0;lucidId=~vcks.mbnJ2U;" vertex="1" parent="1">
          <mxGeometry x="-340" y="-2520" width="270" height="270" as="geometry" />
        </mxCell>
        <mxCell id="uuDwatuscmwlwmb8hPeX-79" value="Always Taken Branch Predictor" style="html=1;overflow=block;blockSpacing=1;whiteSpace=wrap;fontSize=16.7;spacing=9;rounded=1;absoluteArcSize=1;arcSize=9;strokeWidth=NaN;lucidId=i2bk1pYp1I_v;" vertex="1" parent="1">
          <mxGeometry x="1170" y="-884" width="120" height="90" as="geometry" />
        </mxCell>
        <mxCell id="uuDwatuscmwlwmb8hPeX-80" value="Data" style="html=1;overflow=block;blockSpacing=1;whiteSpace=wrap;fontSize=16.7;fontColor=#3a414a;spacing=9;strokeColor=#282c33;strokeOpacity=100;fillOpacity=100;rounded=1;absoluteArcSize=1;arcSize=9;fillColor=#ffffff;strokeWidth=1.5;lucidId=82bkHtU~yvYa;" vertex="1" parent="1">
          <mxGeometry x="1020" y="-764" width="120" height="90" as="geometry" />
        </mxCell>
        <mxCell id="uuDwatuscmwlwmb8hPeX-81" value="Functionality" style="html=1;overflow=block;blockSpacing=1;whiteSpace=wrap;fontSize=16.7;spacing=9;rounded=1;absoluteArcSize=1;arcSize=9;strokeWidth=NaN;lucidId=o3bk2jGgh~UA;" vertex="1" parent="1">
          <mxGeometry x="1320" y="-764" width="120" height="90" as="geometry" />
        </mxCell>
        <mxCell id="uuDwatuscmwlwmb8hPeX-82" value="" style="html=1;jettySize=18;whiteSpace=wrap;fontSize=13;strokeColor=#3a414a;strokeOpacity=100;strokeWidth=0.8;rounded=1;arcSize=12;edgeStyle=orthogonalEdgeStyle;startArrow=none;endArrow=block;endFill=1;exitX=0.5;exitY=1.008;exitPerimeter=0;entryX=0.5;entryY=-0.008;entryPerimeter=0;lucidId=E3bkcDDy-kEL;" edge="1" parent="1" source="uuDwatuscmwlwmb8hPeX-79" target="uuDwatuscmwlwmb8hPeX-81">
          <mxGeometry width="100" height="100" relative="1" as="geometry">
            <Array as="points" />
          </mxGeometry>
        </mxCell>
        <mxCell id="uuDwatuscmwlwmb8hPeX-83" value="" style="html=1;jettySize=18;whiteSpace=wrap;fontSize=13;strokeColor=#3a414a;strokeOpacity=100;strokeWidth=0.8;rounded=1;arcSize=12;edgeStyle=orthogonalEdgeStyle;startArrow=none;endArrow=block;endFill=1;exitX=0.5;exitY=1.008;exitPerimeter=0;entryX=0.5;entryY=-0.008;entryPerimeter=0;lucidId=R3bkoSl7Dh5S;" edge="1" parent="1" source="uuDwatuscmwlwmb8hPeX-79" target="uuDwatuscmwlwmb8hPeX-80">
          <mxGeometry width="100" height="100" relative="1" as="geometry">
            <Array as="points" />
          </mxGeometry>
        </mxCell>
        <mxCell id="uuDwatuscmwlwmb8hPeX-84" value="Predict" style="html=1;overflow=block;blockSpacing=1;whiteSpace=wrap;fontSize=16.7;spacing=9;rounded=1;absoluteArcSize=1;arcSize=9;strokeWidth=NaN;lucidId=d4bkPks5g2ti;" vertex="1" parent="1">
          <mxGeometry x="1320" y="-629" width="120" height="90" as="geometry" />
        </mxCell>
        <mxCell id="uuDwatuscmwlwmb8hPeX-85" value="" style="html=1;jettySize=18;whiteSpace=wrap;fontSize=13;strokeColor=#3a414a;strokeOpacity=100;strokeWidth=0.8;rounded=1;arcSize=12;edgeStyle=orthogonalEdgeStyle;startArrow=none;endArrow=block;endFill=1;exitX=0.496;exitY=1.008;exitPerimeter=0;entryX=0.496;entryY=-0.008;entryPerimeter=0;lucidId=v4bkwlfStT5P;" edge="1" parent="1" source="uuDwatuscmwlwmb8hPeX-81" target="uuDwatuscmwlwmb8hPeX-84">
          <mxGeometry width="100" height="100" relative="1" as="geometry">
            <Array as="points" />
          </mxGeometry>
        </mxCell>
        <mxCell id="uuDwatuscmwlwmb8hPeX-86" value="INPUTS:&#xa;int Program Counter" style="html=1;overflow=block;blockSpacing=1;whiteSpace=wrap;fontSize=16.7;spacing=9;rounded=1;absoluteArcSize=1;arcSize=9;strokeWidth=NaN;lucidId=.4bk7yBoR5yF;" vertex="1" parent="1">
          <mxGeometry x="1590" y="-1000" width="180" height="90" as="geometry" />
        </mxCell>
        <mxCell id="uuDwatuscmwlwmb8hPeX-87" value="" style="html=1;jettySize=18;whiteSpace=wrap;fontSize=13;strokeColor=#3a414a;strokeOpacity=100;strokeWidth=0.8;rounded=1;arcSize=12;edgeStyle=orthogonalEdgeStyle;startArrow=none;endArrow=block;endFill=1;exitX=1.004;exitY=0.5;exitPerimeter=0;entryX=-0.006;entryY=0.5;entryPerimeter=0;lucidId=O5bk9KP6apJc;" edge="1" parent="1" source="uuDwatuscmwlwmb8hPeX-86" target="uuDwatuscmwlwmb8hPeX-90">
          <mxGeometry width="100" height="100" relative="1" as="geometry">
            <Array as="points" />
          </mxGeometry>
        </mxCell>
        <mxCell id="uuDwatuscmwlwmb8hPeX-88" value="Predict" style="html=1;overflow=block;blockSpacing=1;whiteSpace=wrap;fontSize=16.7;spacing=3.8;rounded=1;absoluteArcSize=1;arcSize=9;strokeWidth=NaN;lucidId=46bkn2mSzNT6;" vertex="1" parent="1">
          <mxGeometry x="1425" y="-996" width="120" height="86" as="geometry" />
        </mxCell>
        <mxCell id="uuDwatuscmwlwmb8hPeX-89" value="" style="html=1;jettySize=18;whiteSpace=wrap;fontSize=13;strokeColor=#3a414a;strokeOpacity=100;strokeWidth=0.8;rounded=1;arcSize=12;edgeStyle=orthogonalEdgeStyle;startArrow=none;endArrow=block;endFill=1;exitX=1.006;exitY=0.5;exitPerimeter=0;entryX=-0.004;entryY=0.522;entryPerimeter=0;lucidId=l7bk.DYITlxg;" edge="1" parent="1" source="uuDwatuscmwlwmb8hPeX-88" target="uuDwatuscmwlwmb8hPeX-86">
          <mxGeometry width="100" height="100" relative="1" as="geometry">
            <Array as="points" />
          </mxGeometry>
        </mxCell>
        <mxCell id="uuDwatuscmwlwmb8hPeX-90" value="RETURNS:&#xa;True" style="html=1;overflow=block;blockSpacing=1;whiteSpace=wrap;fontSize=16.7;spacing=9;rounded=1;absoluteArcSize=1;arcSize=9;strokeWidth=NaN;lucidId=s7bk0tZIX3CD;" vertex="1" parent="1">
          <mxGeometry x="1845" y="-1000" width="120" height="90" as="geometry" />
        </mxCell>
        <mxCell id="uuDwatuscmwlwmb8hPeX-91" value="1 - Always Taken BP" style="html=1;overflow=block;blockSpacing=1;whiteSpace=wrap;shadow=1;fontSize=16.7;spacing=9;strokeColor=none;fillColor=#FFECA9;strokeWidth=0;lucidId=1rckRtuBceTb;" vertex="1" parent="1">
          <mxGeometry x="510" y="-996" width="450" height="450" as="geometry" />
        </mxCell>
      </root>
    </mxGraphModel>
  </diagram>
</mxfile>
